<svg width="19" height="18" viewBox="0 0 19 18" fill="none" xmlns="http://www.w3.org/2000/svg">
<path d="M7.95759 1.51869L2.41442 6.04324C1.79051 6.54868 1.39057 7.61667 1.52655 8.4156L2.59039 14.9048C2.78236 16.0625 3.87019 17 5.02202 17H13.9807C15.1245 17 16.2203 16.0543 16.4123 14.9048L17.4761 8.4156C17.6041 7.61667 17.2042 6.54868 16.5883 6.04324L11.0451 1.52685C10.1892 0.825752 8.80546 0.825744 7.95759 1.51869Z" stroke="#6B788E" stroke-width="1.3" stroke-linecap="round" stroke-linejoin="round"/>
<path d="M9.50128 11.8558C10.6057 11.8558 11.501 10.9434 11.501 9.81775C11.501 8.69215 10.6057 7.77966 9.50128 7.77966C8.39688 7.77966 7.50159 8.69215 7.50159 9.81775C7.50159 10.9434 8.39688 11.8558 9.50128 11.8558Z" stroke="#6B788E" stroke-width="1.3" stroke-linecap="round" stroke-linejoin="round"/>
</svg>
