<svg xmlns="http://www.w3.org/2000/svg" width="130" height="29.219" viewBox="0 0 130 29.219">
							<g id="Softobiz_Logo" data-name="Softobiz Logo" transform="translate(0.002)">
								<path id="Path_1" data-name="Path 1" d="M129.918,37.142H116.447V33.861L125.3,20.984h-8.851V17.7h13.471v3.281L121.1,33.861h8.816ZM109.288,17.7h4.02V37.142h-4.02ZM97.226,37.459a8.256,8.256,0,0,1-6.771-3.14v2.822h-4.02V11.036h4.02V20.6a8.306,8.306,0,0,1,6.771-3.21c5.149,0,9.134,3.951,9.134,9.948S102.34,37.459,97.226,37.459Zm-.882-16.581c-3,0-5.889,2.364-5.889,6.526,0,4.2,2.892,6.562,5.889,6.562,3.033,0,5.925-2.434,5.925-6.632S99.377,20.879,96.345,20.879ZM73.422,37.459c-5.536,0-9.733-3.951-9.733-10.054a9.91,9.91,0,1,1,19.819,0A9.734,9.734,0,0,1,73.422,37.459Zm.106-16.581c-3.033,0-5.748,2.117-5.748,6.526s2.61,6.562,5.642,6.562c3,0,5.96-2.152,5.96-6.562S76.525,20.879,73.527,20.879ZM53.567,31.744V20.984H51.32l6.3-8.045V17.7h4.725v3.281H57.623v10.76c0,1.446.564,2.046,2.257,2.046h2.469v3.351H59.174C55.718,37.142,53.567,35.7,53.567,31.744Zm-6.736,5.4H42.776V20.984H40.484V17.7h2.292V16.328c0-4.48,2.292-6.421,7.37-6.421v3.351c-2.468,0-3.315.847-3.315,3.069V17.7h3.6v3.281h-3.6Zm-17.563.317c-5.537,0-9.733-3.951-9.733-10.054a9.584,9.584,0,0,1,9.909-10.019,9.584,9.584,0,0,1,9.909,10.019A9.734,9.734,0,0,1,29.269,37.459Zm.106-16.581c-3.033,0-5.748,2.117-5.748,6.526s2.61,6.562,5.642,6.562c3,0,5.96-2.152,5.96-6.562S32.372,20.879,29.374,20.879Zm-20.7,16.51c-4.9,0-8.675-2.681-8.675-7.02H4.3C4.477,32.379,5.887,34,8.673,34c2.821,0,4.408-1.517,4.408-3.6,0-5.927-13.013-2.082-13.013-11.113,0-4.3,3.421-6.985,8.428-6.985,4.69,0,8.005,2.469,8.358,6.668H12.411c-.141-1.658-1.587-3.175-4.126-3.246-2.327-.071-4.126,1.058-4.126,3.422,0,5.539,12.977,2.081,12.977,11.042C17.137,33.861,14.139,37.389,8.673,37.389Z" transform="translate(0 -8.24)" fill-rule="evenodd"></path>
								<path id="Path_2" data-name="Path 2" d="M646.259,0a3.021,3.021,0,1,1-3.021,3.021A3.021,3.021,0,0,1,646.259,0Z" transform="translate(-534.992 0)" fill="#f35220" fill-rule="evenodd"></path>
								<path id="Path_3" data-name="Path 3" d="M693.334,0a3.021,3.021,0,1,1-3.021,3.021A3.021,3.021,0,0,1,693.334,0Z" transform="translate(-574.145 0)" fill="#e8ac31" fill-rule="evenodd"></path>
								<path id="Path_4" data-name="Path 4" d="M739.611,0a3.021,3.021,0,1,1-3.021,3.021A3.021,3.021,0,0,1,739.611,0Z" transform="translate(-612.634 0)" fill="#00a8f0" fill-rule="evenodd"></path>
							</g>
						</svg>